<?xml version="1.0" encoding="UTF-8"?>
<svg id="Capa_1" xmlns="http://www.w3.org/2000/svg" version="1.1" viewBox="0 0 432.75 429">
  <!-- Generator: Adobe Illustrator 29.5.1, SVG Export Plug-In . SVG Version: 2.1.0 Build 141)  -->
  <defs>
    <style>
      .st0 {
        fill: #fff;
      }
    </style>
  </defs>
  <path class="st0" d="M234.78,31.97h117.24c4.55,0,14.18,10.1,16.6,14.2,14.52,43.75,42.57,89.06,55.75,132.51,3.29,10.87,2.76,14.31-2.29,24.32l-51.58,82.41s-47.02,65.79-76.8,96.18c-14.95,15.25-45.86,34.91-66.31,34.51-38.76-.75-204.69-131.85-204.69-131.85-11.39-7.96-13.01-17.1-11.91-30.46,2.42-29.23,13.81-84.81,21.12-114.07,3.24-12.96,5.81-17.94,16.47-26.32,28.59-22.48,84.09-57.37,116.37-75.32,3.75-2.09,8.63-5.37,12.8-6.02,5.85-.91,57.23-.1,57.23-.1M301.53,61.06h-118.95c-27.1,17.52-55.85,33.4-81.29,53.06h115.52c.94,0,7.03-2.59,8.63-3.35l76.09-49.7ZM243.34,135.51v242.17s42-29.25,58.51-50.16c41.69-52.81,64.67-94.02,94.93-142.37l-50.79-117.24c-34.74,21.65-69.48,43.66-102.66,67.59ZM211.68,141.5H62.78l-22.34,119.78,172.93,114.7-1.7-234.49ZM124.3,353.82"/>
</svg>